<svg width="20" height="21" viewBox="0 0 20 21" fill="none" xmlns="http://www.w3.org/2000/svg">
<g id="B-Icon">
<path id="Vector" d="M13.6333 11.8688C13.7 11.3188 13.75 10.7688 13.75 10.2021C13.75 9.63544 13.7 9.08544 13.6333 8.53544H16.45C16.5833 9.06877 16.6667 9.62711 16.6667 10.2021C16.6667 10.7771 16.5833 11.3354 16.45 11.8688M12.1583 16.5021C12.6583 15.5771 13.0417 14.5771 13.3083 13.5354H15.7667C14.9667 14.9104 13.6917 15.9771 12.1583 16.5021ZM11.95 11.8688H8.05C7.96666 11.3188 7.91666 10.7688 7.91666 10.2021C7.91666 9.63544 7.96666 9.07711 8.05 8.53544H11.95C12.025 9.07711 12.0833 9.63544 12.0833 10.2021C12.0833 10.7688 12.025 11.3188 11.95 11.8688ZM10 16.8354C9.30833 15.8354 8.75 14.7271 8.40833 13.5354H11.5917C11.25 14.7271 10.6917 15.8354 10 16.8354ZM6.66666 6.86877H4.23333C5.025 5.48544 6.30833 4.41877 7.83333 3.90211C7.33333 4.82711 6.95833 5.82711 6.66666 6.86877ZM4.23333 13.5354H6.66666C6.95833 14.5771 7.33333 15.5771 7.83333 16.5021C6.30833 15.9771 5.025 14.9104 4.23333 13.5354ZM3.55 11.8688C3.41666 11.3354 3.33333 10.7771 3.33333 10.2021C3.33333 9.62711 3.41666 9.06877 3.55 8.53544H6.36666C6.3 9.08544 6.25 9.63544 6.25 10.2021C6.25 10.7688 6.3 11.3188 6.36666 11.8688M10 3.56044C10.6917 4.56044 11.25 5.67711 11.5917 6.86877H8.40833C8.75 5.67711 9.30833 4.56044 10 3.56044ZM15.7667 6.86877H13.3083C13.0417 5.82711 12.6583 4.82711 12.1583 3.90211C13.6917 4.42711 14.9667 5.48544 15.7667 6.86877ZM10 1.86877C5.39166 1.86877 1.66666 5.61877 1.66666 10.2021C1.66666 12.4122 2.54464 14.5319 4.10744 16.0947C4.88126 16.8685 5.79992 17.4823 6.81097 17.9011C7.82202 18.3199 8.90565 18.5354 10 18.5354C12.2101 18.5354 14.3298 17.6575 15.8926 16.0947C17.4554 14.5319 18.3333 12.4122 18.3333 10.2021C18.3333 9.10776 18.1178 8.02413 17.699 7.01308C17.2802 6.00203 16.6664 5.08337 15.8926 4.30955C15.1187 3.53573 14.2001 2.9219 13.189 2.50311C12.178 2.08432 11.0943 1.86877 10 1.86877V1.86877Z" fill="black"/>
</g>
</svg>
