<svg width="207" height="39" viewBox="0 0 207 39" fill="none" xmlns="http://www.w3.org/2000/svg">
<g id="Frame 72">
<path id="Path 1" d="M0 6.68094H3.35391V23.7827H0V29.7328H25.7251V19.671H19.1648V23.7827H11.794V17.7372H18.7416V11.8223H11.794V6.68094H19.1654V10.7537H25.7251V0.728394H0V6.68094Z" fill="black"/>
<path id="Path 2" d="M49.2025 16.7676C49.2025 14.2248 48.656 12.2619 47.5711 10.9329C46.4575 9.56433 44.8206 8.86853 42.7065 8.86853C40.9101 8.89128 39.1566 9.42126 37.6483 10.3973V9.12779H27.3267V14.8958H30.2756V24.0359H27.3267V29.7285H40.6683V24.0395H37.6453V16.2679C38.5077 15.6601 39.5299 15.3195 40.5845 15.2886C41.1637 15.2886 41.3635 15.4847 41.4625 15.6328C41.7184 16.138 41.826 16.7053 41.7727 17.2691V29.7358H52.1114V24.0395H49.197L49.2025 16.7676Z" fill="black"/>
<path id="Path 3" d="M61.2181 1.1189L53.829 6.42725V9.13212H51.3791V14.9001H53.829V24.5107C53.7871 25.2481 53.8928 25.9864 54.14 26.6823C54.3872 27.3783 54.7709 28.0178 55.2686 28.5635C56.2236 29.5319 57.6486 30.0292 59.4956 30.0292C61.1803 29.9987 62.8444 29.6531 64.402 29.0104L64.7936 28.8561V23.2618L63.9673 23.5593C62.6643 24.0287 61.657 23.9977 61.4397 23.7172C61.2679 23.4218 61.1912 23.0808 61.2199 22.7403V14.9007H64.7936V9.13273H61.2199L61.2181 1.1189Z" fill="black"/>
<path id="Path 4" d="M81.4766 22.844C80.1408 24.2356 78.7784 24.9399 77.425 24.9399C76.8802 24.9648 76.3361 24.8781 75.826 24.6851C75.316 24.492 74.8508 24.1967 74.4591 23.8172C73.7941 23.1434 73.3542 22.2801 73.1998 21.3461H87.559L87.5517 20.7226C87.5697 18.5604 87.1189 16.4201 86.2306 14.4488C85.4307 12.6969 84.1368 11.2166 82.5075 10.1896C80.8029 9.16478 78.8428 8.64376 76.8543 8.68693C74.9193 8.67647 73.015 9.17054 71.3292 10.1204C69.6511 11.0611 68.2551 12.4336 67.2861 14.0955C66.2859 15.8114 65.7692 17.7662 65.7907 19.7523C65.749 21.6916 66.2499 23.604 67.237 25.2738C68.2135 26.8562 69.626 28.1233 71.3049 28.9228C73.1608 29.796 75.1928 30.2303 77.2435 30.1923C79.2583 30.24 81.2558 29.8095 83.0721 28.9361C84.7628 28.0613 86.1962 26.7609 87.2312 25.1633L87.6847 24.4839L81.7486 22.5647L81.4766 22.844ZM74.3231 14.8186C74.6249 14.5453 74.9782 14.3348 75.3622 14.1993C75.7462 14.0638 76.1533 14.006 76.5598 14.0293C76.9865 14.0215 77.4104 14.098 77.8075 14.2542C78.2045 14.4105 78.5668 14.6435 78.8737 14.94C79.3804 15.413 79.7487 16.0149 79.9392 16.6813H73.3704C73.4996 15.9808 73.8307 15.3333 74.3231 14.8186V14.8186Z" fill="black"/>
<path id="Path 5" d="M104.661 8.87336C102.873 8.8187 101.121 9.38702 99.7057 10.4811C99.1308 10.9376 98.6192 11.4684 98.1842 12.0597V9.132H87.919V14.9H91.2917V24.0395H87.7338V29.7334H102.553V24.0395H98.7027V22.7402C98.6254 21.3229 98.8818 19.9073 99.4513 18.6073C99.8734 17.7508 100.59 17.0748 101.469 16.7026C102.7 16.2451 103.997 15.9896 105.31 15.9461L105.885 15.9091V9.00936L105.376 8.91889C105.14 8.8835 104.901 8.86827 104.661 8.87336V8.87336Z" fill="black"/>
<path id="Path 6" d="M127.09 10.3238C125.616 9.30905 123.852 8.80222 122.064 8.88012C120.277 8.95802 118.563 9.61639 117.183 10.7555V9.13014H107.03V14.8981H109.797V32.7545H106.519V38.4496H121.024V32.7557H117.189V28.4747C118.639 29.5786 120.407 30.1818 122.229 30.1935C123.915 30.2206 125.569 29.7335 126.971 28.7971C128.354 27.8499 129.442 26.5308 130.108 24.9921C130.839 23.3049 131.202 21.4819 131.175 19.6436C131.201 17.7866 130.853 15.9434 130.15 14.2242C129.514 12.664 128.454 11.313 127.09 10.3238V10.3238ZM118.025 16.2254C118.306 15.8748 118.662 15.5909 119.065 15.3939C119.469 15.1968 119.911 15.0917 120.361 15.0859C120.81 15.08 121.255 15.1738 121.663 15.3603C122.072 15.5468 122.434 15.8215 122.724 16.1646C123.365 17.1534 123.67 18.3217 123.596 19.4973C123.676 20.7191 123.375 21.9356 122.736 22.9799C122.477 23.3423 122.13 23.6331 121.727 23.825C121.325 24.017 120.881 24.1039 120.436 24.0777C119.971 24.0868 119.511 23.9803 119.098 23.7677C118.685 23.5551 118.331 23.2431 118.068 22.8597C117.439 21.8691 117.102 20.7214 117.095 19.548C117.088 18.3746 117.411 17.2229 118.028 16.2247L118.025 16.2254Z" fill="black"/>
<path id="Path 7" d="M148.556 8.8734C146.768 8.81842 145.017 9.38678 143.602 10.4811C143.027 10.938 142.515 11.4688 142.08 12.0597V9.13205H131.815V14.9H135.188V24.0395H131.632V29.7334H146.446V24.0395H142.596V22.7402C142.52 21.323 142.777 19.9077 143.345 18.6073C143.767 17.7517 144.482 17.0759 145.36 16.7027C146.592 16.2454 147.89 15.9906 149.204 15.948L149.78 15.9109V9.0094L149.27 8.91893C149.034 8.88361 148.795 8.86838 148.556 8.8734V8.8734Z" fill="black"/>
<path id="Path 8" d="M157.476 8.26499C157.997 8.27117 158.514 8.17371 158.997 7.97827C159.48 7.78284 159.92 7.49333 160.29 7.12657C160.959 6.47632 161.381 5.61382 161.484 4.68663C161.588 3.75944 161.365 2.82519 160.856 2.04372C160.346 1.26225 159.581 0.682136 158.691 0.402619C157.801 0.123102 156.841 0.161559 155.977 0.511412C155.112 0.861264 154.395 1.50077 153.95 2.32051C153.505 3.14025 153.358 4.08929 153.535 5.00524C153.712 5.92119 154.202 6.74714 154.921 7.34177C155.64 7.93639 156.543 8.26275 157.476 8.26499V8.26499Z" fill="#29990B"/>
<path id="Path 9" d="M161.097 9.13147H150.775V14.8994H153.724V24.0395H150.775V29.734H163.97V24.0389H161.095L161.097 9.13147Z" fill="black"/>
<path id="Path 10" d="M179.382 17.1283C177.419 16.4022 175.371 15.9279 173.289 15.7166C172.643 15.6395 172.009 15.4818 171.403 15.2473C171.067 15.0967 171.067 14.9437 171.067 14.8521C171.067 14.2838 171.746 13.9954 173.086 13.9954C175.206 13.9954 176.434 14.5327 176.729 15.5897L176.855 16.0403H182.346V9.13084H176.705V9.53702C175.341 9.0882 173.912 8.86388 172.476 8.8728C170.48 8.78405 168.511 9.36067 166.878 10.5121C166.191 11.0651 165.635 11.7636 165.25 12.5574C164.866 13.3511 164.662 14.2202 164.654 15.1021C164.646 15.984 164.834 16.8567 165.204 17.6573C165.574 18.4579 166.117 19.1664 166.794 19.7318C168.161 20.8246 170.302 21.5854 173.325 22.0584C174.603 22.2885 175.559 22.4943 176.164 22.671C176.53 22.7412 176.873 22.8996 177.163 23.1324C177.29 23.2997 177.35 23.5084 177.332 23.7177C177.35 23.8748 177.317 24.0336 177.238 24.1704C177.159 24.3073 177.037 24.4149 176.892 24.4773C176.194 24.7361 175.449 24.8448 174.706 24.796C173.824 24.828 172.954 24.5892 172.212 24.1118C171.915 23.9178 171.665 23.6605 171.479 23.3583C171.294 23.0562 171.177 22.7168 171.139 22.3644L171.066 21.8283H165.411V29.734H171.141V29.4141C172.439 29.9993 173.857 30.267 175.279 30.1949C177.81 30.1949 179.853 29.5749 181.355 28.3521C182.12 27.717 182.728 26.9129 183.131 26.0031C183.533 25.0933 183.718 24.1025 183.673 23.1087C183.706 21.8607 183.37 20.6306 182.706 19.5733C181.866 18.4452 180.709 17.5937 179.382 17.1283V17.1283Z" fill="black"/>
<path id="Path 11" d="M200.731 22.5683L200.466 22.8464C199.13 24.238 197.768 24.9423 196.415 24.9423C195.87 24.9673 195.326 24.8806 194.816 24.6875C194.305 24.4945 193.84 24.1991 193.449 23.8197C192.783 23.1462 192.343 22.2827 192.189 21.3486H206.549L206.541 20.725C206.558 18.5627 206.107 16.4224 205.218 14.4513C204.417 12.6995 203.123 11.2194 201.493 10.1921C199.789 9.16718 197.83 8.64614 195.841 8.68938C193.906 8.67833 192.002 9.17244 190.316 10.1229C188.638 11.0633 187.241 12.4358 186.272 14.0979C185.272 15.8141 184.756 17.7688 184.777 19.7548C184.735 21.6939 185.235 23.6061 186.222 25.2762C187.199 26.8582 188.611 28.1251 190.29 28.9252C192.146 29.7984 194.177 30.2328 196.228 30.1948C198.243 30.2421 200.24 29.8116 202.057 28.9386C203.747 28.0633 205.18 26.763 206.215 25.1657L206.667 24.4863L200.731 22.5683ZM193.312 14.821C193.614 14.5481 193.967 14.3378 194.351 14.2024C194.735 14.0669 195.142 14.0089 195.548 14.0317C195.975 14.0237 196.399 14.1001 196.796 14.2564C197.193 14.4126 197.555 14.6458 197.862 14.9425C198.368 15.416 198.736 16.0178 198.926 16.6838H192.358C192.487 15.9827 192.819 15.3349 193.312 14.8204V14.821Z" fill="black"/>
</g>
</svg>
