<svg width="20" height="21" viewBox="0 0 20 21" fill="none" xmlns="http://www.w3.org/2000/svg">
<g id="B-Icon">
<path id="Vector" d="M7.91667 2.7021C9.35326 2.7021 10.731 3.27279 11.7468 4.28861C12.7627 5.30443 13.3333 6.68218 13.3333 8.11877C13.3333 9.46044 12.8417 10.6938 12.0333 11.6438L12.2583 11.8688H12.9167L17.0833 16.0354L15.8333 17.2854L11.6667 13.1188V12.4604L11.4417 12.2354C10.4917 13.0438 9.25833 13.5354 7.91667 13.5354C6.48008 13.5354 5.10233 12.9648 4.0865 11.9489C3.07068 10.9331 2.5 9.55536 2.5 8.11877C2.5 6.68218 3.07068 5.30443 4.0865 4.28861C5.10233 3.27279 6.48008 2.7021 7.91667 2.7021M7.91667 4.36877C5.83333 4.36877 4.16667 6.03544 4.16667 8.11877C4.16667 10.2021 5.83333 11.8688 7.91667 11.8688C10 11.8688 11.6667 10.2021 11.6667 8.11877C11.6667 6.03544 10 4.36877 7.91667 4.36877Z" fill="black"/>
</g>
</svg>
