<svg width="20" height="21" fill="none" xmlns="http://www.w3.org/2000/svg"><path d="M13.633 11.869c.067-.55.117-1.1.117-1.667s-.05-1.117-.117-1.667h2.817a6.87 6.87 0 0 1 .217 1.667 6.87 6.87 0 0 1-.217 1.667m-4.292 4.633c.5-.925.884-1.925 1.15-2.967h2.459a6.691 6.691 0 0 1-3.609 2.967Zm-.208-4.633h-3.9c-.083-.55-.133-1.1-.133-1.667s.05-1.125.133-1.667h3.9c.075.542.133 1.1.133 1.667s-.058 1.117-.133 1.667ZM10 16.835c-.692-1-1.25-2.108-1.592-3.3h3.184c-.342 1.192-.9 2.3-1.592 3.3ZM6.667 6.87H4.233a6.603 6.603 0 0 1 3.6-2.967c-.5.925-.875 1.925-1.166 2.967Zm-2.434 6.666h2.434c.291 1.042.666 2.042 1.166 2.967a6.673 6.673 0 0 1-3.6-2.967ZM3.55 11.87a6.869 6.869 0 0 1-.217-1.667c0-.575.084-1.133.217-1.667h2.817c-.067.55-.117 1.1-.117 1.667s.05 1.117.117 1.667M10 3.56c.692 1 1.25 2.117 1.592 3.309H8.408A11.35 11.35 0 0 1 10 3.56Zm5.767 3.309h-2.459a13.038 13.038 0 0 0-1.15-2.967 6.656 6.656 0 0 1 3.609 2.967Zm-5.767-5c-4.608 0-8.333 3.75-8.333 8.333A8.334 8.334 0 1 0 10 1.87Z" fill="#000"/></svg>