<svg width="207" height="39" fill="none" xmlns="http://www.w3.org/2000/svg"><path d="M0 6.68h3.354v17.103H0v5.95h25.725V19.67h-6.56v4.112h-7.371v-6.046h6.948v-5.915h-6.948v-5.14h7.371v4.073h6.56V.728H0v5.953Zm49.203 10.088c0-2.543-.547-4.506-1.632-5.835-1.113-1.369-2.75-2.064-4.864-2.064a9.533 9.533 0 0 0-5.059 1.528v-1.27H27.327v5.769h2.949v9.14h-2.95v5.692h13.342V24.04h-3.023v-7.771a5.375 5.375 0 0 1 2.94-.98c.579 0 .779.197.877.345.256.505.364 1.072.31 1.636v12.467h10.34V24.04h-2.915l.005-7.271ZM61.218 1.119 53.83 6.427v2.705h-2.45V14.9h2.45v9.61a5.547 5.547 0 0 0 1.44 4.053c.955.969 2.38 1.466 4.227 1.466a13.504 13.504 0 0 0 4.906-1.019l.392-.154v-5.594l-.827.297c-1.303.47-2.31.439-2.527.158a1.665 1.665 0 0 1-.22-.977V14.9h3.574V9.134H61.22l-.002-8.014Zm20.259 21.725c-1.336 1.392-2.699 2.096-4.052 2.096a4.002 4.002 0 0 1-2.966-1.123 4.582 4.582 0 0 1-1.26-2.47h14.36l-.007-.624a14.968 14.968 0 0 0-1.321-6.274 9.89 9.89 0 0 0-3.724-4.26 10.528 10.528 0 0 0-5.653-1.502 11.146 11.146 0 0 0-5.525 1.433 10.785 10.785 0 0 0-4.043 3.976c-1 1.715-1.517 3.67-1.495 5.656a10.41 10.41 0 0 0 1.446 5.522 9.661 9.661 0 0 0 4.068 3.649 13.367 13.367 0 0 0 5.938 1.27 12.753 12.753 0 0 0 5.83-1.257 10.953 10.953 0 0 0 4.158-3.773l.454-.68-5.936-1.918-.272.279Zm-7.154-8.025a3.07 3.07 0 0 1 2.237-.79 3.246 3.246 0 0 1 2.314.911 3.817 3.817 0 0 1 1.065 1.741H73.37c.13-.7.46-1.348.953-1.862Zm30.338-5.946a7.717 7.717 0 0 0-4.955 1.608 8.284 8.284 0 0 0-1.522 1.579V9.132H87.92V14.9h3.373v9.14h-3.558v5.693h14.819V24.04h-3.85v-1.3a9.069 9.069 0 0 1 .748-4.133 3.98 3.98 0 0 1 2.018-1.904 12.183 12.183 0 0 1 3.841-.757l.575-.037v-6.9l-.509-.09a4.216 4.216 0 0 0-.715-.046Zm22.429 1.451a8.23 8.23 0 0 0-9.907.431V9.13H107.03v5.768h2.767v17.857h-3.278v5.695h14.505v-5.694h-3.835v-4.281a8.408 8.408 0 0 0 5.04 1.718 8.297 8.297 0 0 0 4.742-1.396 8.895 8.895 0 0 0 3.137-3.805 12.973 12.973 0 0 0 1.067-5.348c.026-1.857-.322-3.7-1.025-5.42a9.028 9.028 0 0 0-3.06-3.9Zm-9.065 5.901a3.05 3.05 0 0 1 2.336-1.14 3.037 3.037 0 0 1 2.363 1.08c.641.988.946 2.157.872 3.332a5.93 5.93 0 0 1-.86 3.483 2.63 2.63 0 0 1-2.3 1.098 2.804 2.804 0 0 1-2.368-1.218 6.247 6.247 0 0 1-.04-6.635h-.003Zm30.531-7.352a7.71 7.71 0 0 0-4.954 1.608 8.307 8.307 0 0 0-1.522 1.579V9.132h-10.265V14.9h3.373v9.14h-3.556v5.693h14.814V24.04h-3.85v-1.3a9.108 9.108 0 0 1 .749-4.133 3.985 3.985 0 0 1 2.015-1.904 12.18 12.18 0 0 1 3.844-.755l.576-.037V9.009l-.51-.09a4.226 4.226 0 0 0-.714-.046Z" fill="#000"/><path d="M157.476 8.265a3.93 3.93 0 0 0 2.814-1.138 4.022 4.022 0 0 0 .566-5.083 4.026 4.026 0 0 0-6.906.277 4.027 4.027 0 0 0 .971 5.02 4.024 4.024 0 0 0 2.555.924Z" fill="#29990B"/><path d="M161.097 9.131h-10.322V14.9h2.949v9.14h-2.949v5.695h13.195V24.04h-2.875l.002-14.908Zm18.285 7.997a24.777 24.777 0 0 0-6.093-1.411 7.783 7.783 0 0 1-1.886-.47c-.336-.15-.336-.303-.336-.395 0-.568.679-.857 2.019-.857 2.12 0 3.348.538 3.643 1.595l.126.45h5.491V9.13h-5.641v.407a13.27 13.27 0 0 0-4.229-.664 9.02 9.02 0 0 0-5.598 1.64 5.97 5.97 0 0 0-2.224 4.59 5.962 5.962 0 0 0 2.14 4.629c1.367 1.093 3.508 1.853 6.531 2.326 1.278.23 2.234.436 2.839.613.366.07.709.229.999.461a.848.848 0 0 1 .169.586.738.738 0 0 1-.44.76 5.291 5.291 0 0 1-2.186.318 4.32 4.32 0 0 1-2.494-.684 2.405 2.405 0 0 1-1.073-1.748l-.073-.536h-5.655v7.906h5.73v-.32a8.962 8.962 0 0 0 4.138.78c2.531 0 4.574-.62 6.076-1.842a6.446 6.446 0 0 0 1.776-2.349c.402-.91.587-1.9.542-2.894a6.332 6.332 0 0 0-.967-3.536 7.056 7.056 0 0 0-3.324-2.445Zm21.349 5.44-.265.278c-1.336 1.392-2.698 2.096-4.051 2.096a3.998 3.998 0 0 1-2.966-1.122 4.572 4.572 0 0 1-1.26-2.471h14.36l-.008-.624a14.973 14.973 0 0 0-1.323-6.274 9.9 9.9 0 0 0-3.725-4.259 10.52 10.52 0 0 0-5.652-1.503 11.12 11.12 0 0 0-5.525 1.434 10.784 10.784 0 0 0-4.044 3.975c-1 1.716-1.516 3.67-1.495 5.657a10.408 10.408 0 0 0 1.445 5.521 9.67 9.67 0 0 0 4.068 3.65 13.364 13.364 0 0 0 5.938 1.269 12.767 12.767 0 0 0 5.829-1.256 10.962 10.962 0 0 0 4.158-3.773l.452-.68-5.936-1.918Zm-7.419-7.747a3.074 3.074 0 0 1 2.236-.79 3.24 3.24 0 0 1 2.314.912 3.82 3.82 0 0 1 1.064 1.74h-6.568a3.648 3.648 0 0 1 .954-1.863v.001Z" fill="#000"/></svg>